<?xml version="1.0" encoding="utf-8"?>
<svg width="1920" height="97.20001" viewBox="0 982.8 1920 97.20001" version="1.1" xmlns:xlink="http://www.w3.org/1999/xlink" xmlns="http://www.w3.org/2000/svg">
  <defs>
    <path d="M0 0L1920 0L1920 1080L0 1080L0 0Z" id="path_1" />
    <clipPath id="mask_1">
      <use xlink:href="#path_1" />
    </clipPath>
  </defs>
  <path d="M0 0L1920 0L1920 1080L0 1080L0 0Z" id="Background" fill="none" fill-rule="evenodd" stroke="none" />
  <g clip-path="url(#mask_1)">
    <path d="M0 1016L64 1014.5C128 1013 256 1010 384 1009.7C512 1009.3 640 1011.7 768 1013.8C896 1016 1024 1018 1152 1013.8C1280 1009.7 1408 999.3 1536 996.8C1664 994.3 1792 999.7 1856 1002.3L1920 1005L1920 1081L1856 1081C1792 1081 1664 1081 1536 1081C1408 1081 1280 1081 1152 1081C1024 1081 896 1081 768 1081C640 1081 512 1081 384 1081C256 1081 128 1081 64 1081L0 1081L0 1016Z" id="Shape" fill="#0066FF" stroke="none" />
    <path d="M0 1032L64 1032C128 1032 256 1032 384 1032.2C512 1032.3 640 1032.7 768 1033.3C896 1034 1024 1035 1152 1032.5C1280 1030 1408 1024 1536 1020.7C1664 1017.3 1792 1016.7 1856 1016.3L1920 1016L1920 1081L1856 1081C1792 1081 1664 1081 1536 1081C1408 1081 1280 1081 1152 1081C1024 1081 896 1081 768 1081C640 1081 512 1081 384 1081C256 1081 128 1081 64 1081L0 1081L0 1032Z" id="Shape" fill="#8C4DDC" stroke="none" />
    <path d="M0 1031L64 1030C128 1029 256 1027 384 1027.7C512 1028.3 640 1031.7 768 1031.7C896 1031.7 1024 1028.3 1152 1028.2C1280 1028 1408 1031 1536 1032C1664 1033 1792 1032 1856 1031.5L1920 1031L1920 1081L1856 1081C1792 1081 1664 1081 1536 1081C1408 1081 1280 1081 1152 1081C1024 1081 896 1081 768 1081C640 1081 512 1081 384 1081C256 1081 128 1081 64 1081L0 1081L0 1031Z" id="Shape" fill="#B434B4" stroke="none" />
    <path d="M0 1050L64 1049C128 1048 256 1046 384 1044.8C512 1043.7 640 1043.3 768 1044.2C896 1045 1024 1047 1152 1047.5C1280 1048 1408 1047 1536 1045.2C1664 1043.3 1792 1040.7 1856 1039.3L1920 1038L1920 1081L1856 1081C1792 1081 1664 1081 1536 1081C1408 1081 1280 1081 1152 1081C1024 1081 896 1081 768 1081C640 1081 512 1081 384 1081C256 1081 128 1081 64 1081L0 1081L0 1050Z" id="Shape" fill="#C5218C" stroke="none" />
    <path d="M0 1062L64 1061.8C128 1061.7 256 1061.3 384 1060.2C512 1059 640 1057 768 1056.8C896 1056.7 1024 1058.3 1152 1059.7C1280 1061 1408 1062 1536 1061.7C1664 1061.3 1792 1059.7 1856 1058.8L1920 1058L1920 1081L1856 1081C1792 1081 1664 1081 1536 1081C1408 1081 1280 1081 1152 1081C1024 1081 896 1081 768 1081C640 1081 512 1081 384 1081C256 1081 128 1081 64 1081L0 1081L0 1062Z" id="Shape" fill="#C62368" stroke="none" />
  </g>
</svg>