<?xml version="1.0" encoding="utf-8"?>
<svg width="1920px" height="230px" viewBox="0 0 1920 230" version="1.1" xmlns:xlink="http://www.w3.org/1999/xlink" xmlns="http://www.w3.org/2000/svg">
  <path d="M0 230L64 225.2C128 220.3 256 210.7 384 202.3C512 194 640 187 768 193.5C896 200 1024 220 1152 225.5C1280 231 1408 222 1536 219.3C1664 216.7 1792 220.3 1856 222.2L1920 224L1920 0L1856 0C1792 0 1664 0 1536 0C1408 0 1280 0 1152 0C1024 0 896 0 768 0C640 0 512 0 384 0C256 0 128 0 64 0L0 0L0 230Z" id="Shape" fill="#0066FF" stroke="none" />
  <path d="M0 203L64 197.3C128 191.7 256 180.3 384 177.8C512 175.3 640 181.7 768 176.2C896 170.7 1024 153.3 1152 157.8C1280 162.3 1408 188.7 1536 192C1664 195.3 1792 175.7 1856 165.8L1920 156L1920 0L1856 0C1792 0 1664 0 1536 0C1408 0 1280 0 1152 0C1024 0 896 0 768 0C640 0 512 0 384 0C256 0 128 0 64 0L0 0L0 203Z" id="Shape" fill="#8C4DDC" stroke="none" />
  <path d="M0 167L64 157.3C128 147.7 256 128.3 384 116.3C512 104.3 640 99.7 768 108.7C896 117.7 1024 140.3 1152 141.3C1280 142.3 1408 121.7 1536 116.7C1664 111.7 1792 122.3 1856 127.7L1920 133L1920 0L1856 0C1792 0 1664 0 1536 0C1408 0 1280 0 1152 0C1024 0 896 0 768 0C640 0 512 0 384 0C256 0 128 0 64 0L0 0L0 167Z" id="Shape" fill="#B434B4" stroke="none" />
  <path d="M0 68L64 68.8C128 69.7 256 71.3 384 70.5C512 69.7 640 66.3 768 70.2C896 74 1024 85 1152 87.7C1280 90.3 1408 84.7 1536 81.8C1664 79 1792 79 1856 79L1920 79L1920 0L1856 0C1792 0 1664 0 1536 0C1408 0 1280 0 1152 0C1024 0 896 0 768 0C640 0 512 0 384 0C256 0 128 0 64 0L0 0L0 68Z" id="Shape" fill="#C5218C" stroke="none" />
  <path d="M0 29L64 29.3C128 29.7 256 30.3 384 35.8C512 41.3 640 51.7 768 51C896 50.3 1024 38.7 1152 40.7C1280 42.7 1408 58.3 1536 61.5C1664 64.7 1792 55.3 1856 50.7L1920 46L1920 0L1856 0C1792 0 1664 0 1536 0C1408 0 1280 0 1152 0C1024 0 896 0 768 0C640 0 512 0 384 0C256 0 128 0 64 0L0 0L0 29Z" id="Shape" fill="#C62368" stroke="none" />
</svg>