<?xml version="1.0" encoding="utf-8"?>
<svg width="1920px" height="172.0014px" viewBox="0 0 1920 172.0014" version="1.1" xmlns:xlink="http://www.w3.org/1999/xlink" xmlns="http://www.w3.org/2000/svg">
  <path d="M0 31.0014L45.7 22.3014C91.3 13.7014 182.7 -3.69861 274.2 0.701416C365.7 5.0014 457.3 31.0014 548.8 42.3014C640.3 53.7014 731.7 50.3014 823 50.8014C914.3 51.3014 1005.7 55.7014 1097 52.3014C1188.3 49.0014 1279.7 38.0014 1371.2 28.3014C1462.7 18.7014 1554.3 10.3014 1645.8 14.2014C1737.3 18.0014 1828.7 34.0014 1874.3 42.0014L1920 50.0014L1920 172.001L1874.3 172.001C1828.7 172.001 1737.3 172.001 1645.8 172.001C1554.3 172.001 1462.7 172.001 1371.2 172.001C1279.7 172.001 1188.3 172.001 1097 172.001C1005.7 172.001 914.3 172.001 823 172.001C731.7 172.001 640.3 172.001 548.8 172.001C457.3 172.001 365.7 172.001 274.2 172.001C182.7 172.001 91.3 172.001 45.7 172.001L0 172.001L0 31.0014Z" id="Shape" fill="#0066FF" stroke="none" />
  <path d="M0 68.0014L45.7 60.5014C91.3 53.0014 182.7 38.0014 274.2 35.0014C365.7 32.0014 457.3 41.0014 548.8 51.3014C640.3 61.7014 731.7 73.3014 823 78.2014C914.3 83.0014 1005.7 81.0014 1097 69.7014C1188.3 58.3014 1279.7 37.7014 1371.2 29.0014C1462.7 20.3014 1554.3 23.7014 1645.8 29.8014C1737.3 36.0014 1828.7 45.0014 1874.3 49.5014L1920 54.0014L1920 172.001L1874.3 172.001C1828.7 172.001 1737.3 172.001 1645.8 172.001C1554.3 172.001 1462.7 172.001 1371.2 172.001C1279.7 172.001 1188.3 172.001 1097 172.001C1005.7 172.001 914.3 172.001 823 172.001C731.7 172.001 640.3 172.001 548.8 172.001C457.3 172.001 365.7 172.001 274.2 172.001C182.7 172.001 91.3 172.001 45.7 172.001L0 172.001L0 68.0014Z" id="Shape" fill="#9D45CF" stroke="none" />
  <path d="M0 98.0014L45.7 96.8014C91.3 95.7014 182.7 93.3014 274.2 94.0014C365.7 94.7014 457.3 98.3014 548.8 105.001C640.3 111.701 731.7 121.301 823 119.201C914.3 117.001 1005.7 103.001 1097 97.8014C1188.3 92.7014 1279.7 96.3014 1371.2 91.2014C1462.7 86.0014 1554.3 72.0014 1645.8 75.2014C1737.3 78.3014 1828.7 98.7014 1874.3 108.801L1920 119.001L1920 172.001L1874.3 172.001C1828.7 172.001 1737.3 172.001 1645.8 172.001C1554.3 172.001 1462.7 172.001 1371.2 172.001C1279.7 172.001 1188.3 172.001 1097 172.001C1005.7 172.001 914.3 172.001 823 172.001C731.7 172.001 640.3 172.001 548.8 172.001C457.3 172.001 365.7 172.001 274.2 172.001C182.7 172.001 91.3 172.001 45.7 172.001L0 172.001L0 98.0014Z" id="Shape" fill="#C12699" stroke="none" />
  <path d="M0 148.001L45.7 140.001C91.3 132.001 182.7 116.001 274.2 117.201C365.7 118.301 457.3 136.701 548.8 142.501C640.3 148.301 731.7 141.701 823 136.801C914.3 132.001 1005.7 129.001 1097 126.201C1188.3 123.301 1279.7 120.701 1371.2 118.701C1462.7 116.701 1554.3 115.301 1645.8 112.501C1737.3 109.701 1828.7 105.301 1874.3 103.201L1920 101.001L1920 172.001L1874.3 172.001C1828.7 172.001 1737.3 172.001 1645.8 172.001C1554.3 172.001 1462.7 172.001 1371.2 172.001C1279.7 172.001 1188.3 172.001 1097 172.001C1005.7 172.001 914.3 172.001 823 172.001C731.7 172.001 640.3 172.001 548.8 172.001C457.3 172.001 365.7 172.001 274.2 172.001C182.7 172.001 91.3 172.001 45.7 172.001L0 172.001L0 148.001Z" id="Shape" fill="#C62368" stroke="none" />
</svg>