<?xml version="1.0" encoding="utf-8"?>
<svg width="2100px" height="179.95178px" viewBox="0 0 2100 179.95178" version="1.1" xmlns:xlink="http://www.w3.org/1999/xlink" xmlns="http://www.w3.org/2000/svg">
  <path d="M0 2.95178L50 1.65179C100 0.25177 200 -2.34821 300 4.65179C400 11.6518 500 28.2518 600 31.4518C700 34.6518 800 24.2518 900 16.9518C1000 9.65179 1100 5.25177 1200 14.7518C1300 24.2518 1400 47.6518 1500 52.4518C1600 57.2518 1700 43.6518 1800 32.4518C1900 21.2518 2000 12.6518 2050 8.25177L2100 3.95178L2100 179.952L2050 179.952C2000 179.952 1900 179.952 1800 179.952C1700 179.952 1600 179.952 1500 179.952C1400 179.952 1300 179.952 1200 179.952C1100 179.952 1000 179.952 900 179.952C800 179.952 700 179.952 600 179.952C500 179.952 400 179.952 300 179.952C200 179.952 100 179.952 50 179.952L0 179.952L0 2.95178Z" id="Shape" fill="#0066FF" stroke="none" />
  <path d="M0 70.9518L50 65.9518C100 60.9518 200 50.9518 300 50.7518C400 50.6518 500 60.2518 600 69.6518C700 78.9518 800 87.9518 900 86.9518C1000 85.9518 1100 74.9518 1200 76.2518C1300 77.6518 1400 91.2518 1500 98.6518C1600 105.952 1700 106.952 1800 107.952C1900 108.952 2000 109.952 2050 110.452L2100 110.952L2100 179.952L2050 179.952C2000 179.952 1900 179.952 1800 179.952C1700 179.952 1600 179.952 1500 179.952C1400 179.952 1300 179.952 1200 179.952C1100 179.952 1000 179.952 900 179.952C800 179.952 700 179.952 600 179.952C500 179.952 400 179.952 300 179.952C200 179.952 100 179.952 50 179.952L0 179.952L0 70.9518Z" id="Shape" fill="#9D45CF" stroke="none" />
  <path d="M0 118.952L50 111.152C100 103.252 200 87.6518 300 86.4518C400 85.2518 500 98.6518 600 106.652C700 114.652 800 117.252 900 110.452C1000 103.652 1100 87.2518 1200 89.7518C1300 92.2518 1400 113.652 1500 114.452C1600 115.252 1700 95.6518 1800 85.7518C1900 75.9518 2000 75.9518 2050 75.9518L2100 75.9518L2100 179.952L2050 179.952C2000 179.952 1900 179.952 1800 179.952C1700 179.952 1600 179.952 1500 179.952C1400 179.952 1300 179.952 1200 179.952C1100 179.952 1000 179.952 900 179.952C800 179.952 700 179.952 600 179.952C500 179.952 400 179.952 300 179.952C200 179.952 100 179.952 50 179.952L0 179.952L0 118.952Z" id="Shape" fill="#C12699" stroke="none" />
  <path d="M0 162.952L50 159.252C100 155.652 200 148.252 300 143.152C400 137.952 500 134.952 600 132.252C700 129.652 800 127.252 900 122.752C1000 118.252 1100 111.652 1200 112.652C1300 113.652 1400 122.252 1500 123.152C1600 123.952 1700 116.952 1800 115.252C1900 113.652 2000 117.252 2050 119.152L2100 120.952L2100 179.952L2050 179.952C2000 179.952 1900 179.952 1800 179.952C1700 179.952 1600 179.952 1500 179.952C1400 179.952 1300 179.952 1200 179.952C1100 179.952 1000 179.952 900 179.952C800 179.952 700 179.952 600 179.952C500 179.952 400 179.952 300 179.952C200 179.952 100 179.952 50 179.952L0 179.952L0 162.952Z" id="Shape" fill="#C62368" stroke="none" />
</svg>