<?xml version="1.0" encoding="utf-8"?>
<svg width="2100px" height="192.73468px" viewBox="0 0 2100 192.73468" version="1.1" xmlns:xlink="http://www.w3.org/1999/xlink" xmlns="http://www.w3.org/2000/svg">
  <path d="M0 93.7347L50 79.2347C100 64.7347 200 35.7347 300 24.9347C400 14.0347 500 21.4347 600 30.2347C700 39.0347 800 49.4347 900 44.4347C1000 39.4347 1100 19.0347 1200 8.73468C1300 -1.56531 1400 -1.96533 1500 3.43469C1600 8.73468 1700 19.7347 1800 23.7347C1900 27.7347 2000 24.7347 2050 23.2347L2100 21.7347L2100 192.735L2050 192.735C2000 192.735 1900 192.735 1800 192.735C1700 192.735 1600 192.735 1500 192.735C1400 192.735 1300 192.735 1200 192.735C1100 192.735 1000 192.735 900 192.735C800 192.735 700 192.735 600 192.735C500 192.735 400 192.735 300 192.735C200 192.735 100 192.735 50 192.735L0 192.735L0 93.7347Z" id="Shape" fill="#0066FF" stroke="none" />
  <path d="M0 106.735L50 102.235C100 97.7347 200 88.7347 300 80.7347C400 72.7347 500 65.7347 600 66.5347C700 67.4347 800 76.0347 900 78.7347C1000 81.4347 1100 78.0347 1200 82.7347C1300 87.4347 1400 100.035 1500 97.5347C1600 95.0347 1700 77.4347 1800 65.4347C1900 53.4347 2000 47.0347 2050 43.9347L2100 40.7347L2100 192.735L2050 192.735C2000 192.735 1900 192.735 1800 192.735C1700 192.735 1600 192.735 1500 192.735C1400 192.735 1300 192.735 1200 192.735C1100 192.735 1000 192.735 900 192.735C800 192.735 700 192.735 600 192.735C500 192.735 400 192.735 300 192.735C200 192.735 100 192.735 50 192.735L0 192.735L0 106.735Z" id="Shape" fill="#9D45CF" stroke="none" />
  <path d="M0 117.735L50 111.435C100 105.035 200 92.4347 300 95.0347C400 97.7347 500 115.735 600 124.735C700 133.735 800 133.735 900 130.235C1000 126.735 1100 119.735 1200 115.435C1300 111.035 1400 109.435 1500 111.535C1600 113.735 1700 119.735 1800 123.935C1900 128.035 2000 130.435 2050 131.535L2100 132.735L2100 192.735L2050 192.735C2000 192.735 1900 192.735 1800 192.735C1700 192.735 1600 192.735 1500 192.735C1400 192.735 1300 192.735 1200 192.735C1100 192.735 1000 192.735 900 192.735C800 192.735 700 192.735 600 192.735C500 192.735 400 192.735 300 192.735C200 192.735 100 192.735 50 192.735L0 192.735L0 117.735Z" id="Shape" fill="#C12699" stroke="none" />
  <path d="M0 155.735L50 153.935C100 152.035 200 148.435 300 150.035C400 151.735 500 158.735 600 156.035C700 153.435 800 141.035 900 136.035C1000 131.035 1100 133.435 1200 133.935C1300 134.435 1400 133.035 1500 138.935C1600 144.735 1700 157.735 1800 160.435C1900 163.035 2000 155.435 2050 151.535L2100 147.735L2100 192.735L2050 192.735C2000 192.735 1900 192.735 1800 192.735C1700 192.735 1600 192.735 1500 192.735C1400 192.735 1300 192.735 1200 192.735C1100 192.735 1000 192.735 900 192.735C800 192.735 700 192.735 600 192.735C500 192.735 400 192.735 300 192.735C200 192.735 100 192.735 50 192.735L0 192.735L0 155.735Z" id="Shape" fill="#C62368" stroke="none" />
</svg>