<?xml version="1.0" encoding="utf-8"?>
<svg width="1920px" height="169.0014px" viewBox="0 0 1920 169.0014" version="1.1" xmlns:xlink="http://www.w3.org/1999/xlink" xmlns="http://www.w3.org/2000/svg">
  <path d="M0 138L45.7 146.7C91.3 155.3 182.7 172.7 274.2 168.3C365.7 164 457.3 138 548.8 126.7C640.3 115.3 731.7 118.7 823 118.2C914.3 117.7 1005.7 113.3 1097 116.7C1188.3 120 1279.7 131 1371.2 140.7C1462.7 150.3 1554.3 158.7 1645.8 154.8C1737.3 151 1828.7 135 1874.3 127L1920 119L1920 0L1874.3 0C1828.7 0 1737.3 0 1645.8 0C1554.3 0 1462.7 0 1371.2 0C1279.7 0 1188.3 0 1097 0C1005.7 0 914.3 0 823 0C731.7 0 640.3 0 548.8 0C457.3 0 365.7 0 274.2 0C182.7 0 91.3 0 45.7 0L0 0L0 138Z" id="Shape" fill="#0066FF" stroke="none" />
  <path d="M0 101L45.7 108.5C91.3 116 182.7 131 274.2 134C365.7 137 457.3 128 548.8 117.7C640.3 107.3 731.7 95.7 823 90.8C914.3 86 1005.7 88 1097 99.3C1188.3 110.7 1279.7 131.3 1371.2 140C1462.7 148.7 1554.3 145.3 1645.8 139.2C1737.3 133 1828.7 124 1874.3 119.5L1920 115L1920 0L1874.3 0C1828.7 0 1737.3 0 1645.8 0C1554.3 0 1462.7 0 1371.2 0C1279.7 0 1188.3 0 1097 0C1005.7 0 914.3 0 823 0C731.7 0 640.3 0 548.8 0C457.3 0 365.7 0 274.2 0C182.7 0 91.3 0 45.7 0L0 0L0 101Z" id="Shape" fill="#9D45CF" stroke="none" />
  <path d="M0 71L45.7 72.2C91.3 73.3 182.7 75.7 274.2 75C365.7 74.3 457.3 70.7 548.8 64C640.3 57.3 731.7 47.7 823 49.8C914.3 52 1005.7 66 1097 71.2C1188.3 76.3 1279.7 72.7 1371.2 77.8C1462.7 83 1554.3 97 1645.8 93.8C1737.3 90.7 1828.7 70.3 1874.3 60.2L1920 50L1920 0L1874.3 0C1828.7 0 1737.3 0 1645.8 0C1554.3 0 1462.7 0 1371.2 0C1279.7 0 1188.3 0 1097 0C1005.7 0 914.3 0 823 0C731.7 0 640.3 0 548.8 0C457.3 0 365.7 0 274.2 0C182.7 0 91.3 0 45.7 0L0 0L0 71Z" id="Shape" fill="#C12699" stroke="none" />
  <path d="M0 21L45.7 29C91.3 37 182.7 53 274.2 51.8C365.7 50.7 457.3 32.3 548.8 26.5C640.3 20.7 731.7 27.3 823 32.2C914.3 37 1005.7 40 1097 42.8C1188.3 45.7 1279.7 48.3 1371.2 50.3C1462.7 52.3 1554.3 53.7 1645.8 56.5C1737.3 59.3 1828.7 63.7 1874.3 65.8L1920 68L1920 0L1874.3 0C1828.7 0 1737.3 0 1645.8 0C1554.3 0 1462.7 0 1371.2 0C1279.7 0 1188.3 0 1097 0C1005.7 0 914.3 0 823 0C731.7 0 640.3 0 548.8 0C457.3 0 365.7 0 274.2 0C182.7 0 91.3 0 45.7 0L0 0L0 21Z" id="Shape" fill="#C62368" stroke="none" />
</svg>