<?xml version="1.0" encoding="utf-8"?>
<svg width="2100px" height="176.95181px" viewBox="0 0 2100 176.95181" version="1.1" xmlns:xlink="http://www.w3.org/1999/xlink" xmlns="http://www.w3.org/2000/svg">
  <path d="M0 174L50 175.3C100 176.7 200 179.3 300 172.3C400 165.3 500 148.7 600 145.5C700 142.3 800 152.7 900 160C1000 167.3 1100 171.7 1200 162.2C1300 152.7 1400 129.3 1500 124.5C1600 119.7 1700 133.3 1800 144.5C1900 155.7 2000 164.3 2050 168.7L2100 173L2100 0L2050 0C2000 0 1900 0 1800 0C1700 0 1600 0 1500 0C1400 0 1300 0 1200 0C1100 0 1000 0 900 0C800 0 700 0 600 0C500 0 400 0 300 0C200 0 100 0 50 0L0 0L0 174Z" id="Shape" fill="#0066FF" stroke="none" />
  <path d="M0 106L50 111C100 116 200 126 300 126.2C400 126.3 500 116.7 600 107.3C700 98 800 89 900 90C1000 91 1100 102 1200 100.7C1300 99.3 1400 85.7 1500 78.3C1600 71 1700 70 1800 69C1900 68 2000 67 2050 66.5L2100 66L2100 0L2050 0C2000 0 1900 0 1800 0C1700 0 1600 0 1500 0C1400 0 1300 0 1200 0C1100 0 1000 0 900 0C800 0 700 0 600 0C500 0 400 0 300 0C200 0 100 0 50 0L0 0L0 106Z" id="Shape" fill="#9D45CF" stroke="none" />
  <path d="M0 58L50 65.8C100 73.7 200 89.3 300 90.5C400 91.7 500 78.3 600 70.3C700 62.3 800 59.7 900 66.5C1000 73.3 1100 89.7 1200 87.2C1300 84.7 1400 63.3 1500 62.5C1600 61.7 1700 81.3 1800 91.2C1900 101 2000 101 2050 101L2100 101L2100 0L2050 0C2000 0 1900 0 1800 0C1700 0 1600 0 1500 0C1400 0 1300 0 1200 0C1100 0 1000 0 900 0C800 0 700 0 600 0C500 0 400 0 300 0C200 0 100 0 50 0L0 0L0 58Z" id="Shape" fill="#C12699" stroke="none" />
  <path d="M0 14L50 17.7C100 21.3 200 28.7 300 33.8C400 39 500 42 600 44.7C700 47.3 800 49.7 900 54.2C1000 58.7 1100 65.3 1200 64.3C1300 63.3 1400 54.7 1500 53.8C1600 53 1700 60 1800 61.7C1900 63.3 2000 59.7 2050 57.8L2100 56L2100 0L2050 0C2000 0 1900 0 1800 0C1700 0 1600 0 1500 0C1400 0 1300 0 1200 0C1100 0 1000 0 900 0C800 0 700 0 600 0C500 0 400 0 300 0C200 0 100 0 50 0L0 0L0 14Z" id="Shape" fill="#C62368" stroke="none" />
</svg>