<?xml version="1.0" encoding="utf-8"?>
<svg width="2100px" height="189.73468px" viewBox="0 0 2100 189.73468" version="1.1" xmlns:xlink="http://www.w3.org/1999/xlink" xmlns="http://www.w3.org/2000/svg">
  <path d="M0 96L50 110.5C100 125 200 154 300 164.8C400 175.7 500 168.3 600 159.5C700 150.7 800 140.3 900 145.3C1000 150.3 1100 170.7 1200 181C1300 191.3 1400 191.7 1500 186.3C1600 181 1700 170 1800 166C1900 162 2000 165 2050 166.5L2100 168L2100 0L2050 0C2000 0 1900 0 1800 0C1700 0 1600 0 1500 0C1400 0 1300 0 1200 0C1100 0 1000 0 900 0C800 0 700 0 600 0C500 0 400 0 300 0C200 0 100 0 50 0L0 0L0 96Z" id="Shape" fill="#0066FF" stroke="none" />
  <path d="M0 83L50 87.5C100 92 200 101 300 109C400 117 500 124 600 123.2C700 122.3 800 113.7 900 111C1000 108.3 1100 111.7 1200 107C1300 102.3 1400 89.7 1500 92.2C1600 94.7 1700 112.3 1800 124.3C1900 136.3 2000 142.7 2050 145.8L2100 149L2100 0L2050 0C2000 0 1900 0 1800 0C1700 0 1600 0 1500 0C1400 0 1300 0 1200 0C1100 0 1000 0 900 0C800 0 700 0 600 0C500 0 400 0 300 0C200 0 100 0 50 0L0 0L0 83Z" id="Shape" fill="#9D45CF" stroke="none" />
  <path d="M0 72L50 78.3C100 84.7 200 97.3 300 94.7C400 92 500 74 600 65C700 56 800 56 900 59.5C1000 63 1100 70 1200 74.3C1300 78.7 1400 80.3 1500 78.2C1600 76 1700 70 1800 65.8C1900 61.7 2000 59.3 2050 58.2L2100 57L2100 0L2050 0C2000 0 1900 0 1800 0C1700 0 1600 0 1500 0C1400 0 1300 0 1200 0C1100 0 1000 0 900 0C800 0 700 0 600 0C500 0 400 0 300 0C200 0 100 0 50 0L0 0L0 72Z" id="Shape" fill="#C12699" stroke="none" />
  <path d="M0 34L50 35.8C100 37.7 200 41.3 300 39.7C400 38 500 31 600 33.7C700 36.3 800 48.7 900 53.7C1000 58.7 1100 56.3 1200 55.8C1300 55.3 1400 56.7 1500 50.8C1600 45 1700 32 1800 29.3C1900 26.7 2000 34.3 2050 38.2L2100 42L2100 0L2050 0C2000 0 1900 0 1800 0C1700 0 1600 0 1500 0C1400 0 1300 0 1200 0C1100 0 1000 0 900 0C800 0 700 0 600 0C500 0 400 0 300 0C200 0 100 0 50 0L0 0L0 34Z" id="Shape" fill="#C62368" stroke="none" />
</svg>